<svg width="23" height="23" viewBox="0 0 23 23" fill="none" xmlns="http://www.w3.org/2000/svg">
<path fill-rule="evenodd" clip-rule="evenodd" d="M1.95399 1.95421C2.53977 1.36843 3.48952 1.36843 4.07531 1.95421L21.0459 18.9248C21.6317 19.5106 21.6317 20.4603 21.0459 21.0461C20.4601 21.6319 19.5103 21.6319 18.9246 21.0461L1.95399 4.07554C1.3682 3.48975 1.3682 2.54 1.95399 1.95421Z" fill="#1064E5"/>
<path fill-rule="evenodd" clip-rule="evenodd" d="M21.047 1.95421C20.4612 1.36843 19.5115 1.36843 18.9257 1.95421L1.95511 18.9248C1.36932 19.5106 1.36932 20.4603 1.95511 21.0461C2.54089 21.6319 3.49064 21.6319 4.07643 21.0461L21.047 4.07554C21.6328 3.48975 21.6328 2.54 21.047 1.95421Z" fill="#1064E5"/>
</svg>
