<svg width="42" height="42" viewBox="0 0 42 42" fill="none" xmlns="http://www.w3.org/2000/svg">
<g clip-path="url(#clip0_39_41)">
<path d="M34.6583 22.1987C34.3207 22.1987 34.0471 22.4724 34.0471 22.8099C34.0471 23.2379 33.6989 23.586 33.271 23.586C32.8431 23.586 32.4949 23.2379 32.4949 22.8099C32.4949 22.4723 32.2212 22.1987 31.8837 22.1987C31.5461 22.1987 31.2725 22.4724 31.2725 22.8099C31.2725 23.9119 32.1691 24.8085 33.271 24.8085C34.3729 24.8085 35.2695 23.9119 35.2695 22.8099C35.2695 22.4722 34.9959 22.1987 34.6583 22.1987Z" fill="#1064E5" stroke="#1064E5"/>
<path d="M40.3958 22.2984L38.6754 21.7473C38.4551 21.6767 38.2814 21.5008 38.211 21.2768C37.8484 20.124 37.3013 19.0418 36.5847 18.06C36.2581 17.6125 35.895 17.1852 35.4983 16.7784C35.7521 15.665 35.8901 14.4049 35.8722 13.3163C35.8466 11.7589 35.5354 10.8455 34.9208 10.5236C34.5898 10.3501 33.5824 9.82276 28.1301 12.3186C28.001 12.3777 27.8804 12.4505 27.7687 12.5338C27.4011 12.435 27.0254 12.3437 26.6474 12.2616C26.6019 12.2517 26.555 12.2429 26.5091 12.2332C26.951 11.2681 27.2089 10.2198 27.2574 9.13763C27.2725 8.80032 27.0114 8.51469 26.6741 8.49968C26.3377 8.48294 26.0512 8.74561 26.0361 9.08292C25.9565 10.8623 25.2184 12.5364 23.9579 13.797C23.2048 14.5501 22.3229 15.0972 21.3831 15.4417C19.7532 15.213 18.0931 15.213 16.4632 15.4417C15.5233 15.0972 14.6415 14.5501 13.8884 13.797C12.5436 12.4522 11.8029 10.6642 11.8029 8.76226C11.8029 6.86028 12.5436 5.07233 13.8884 3.72751C15.2332 2.38261 17.0213 1.64195 18.9231 1.64195C20.8249 1.64195 22.6131 2.38261 23.9579 3.72751C24.4983 4.26793 24.9449 4.88464 25.2852 5.56033C25.4371 5.86188 25.8047 5.98328 26.1061 5.83136C26.4077 5.67961 26.529 5.31202 26.3771 5.01056C25.9782 4.21822 25.4551 3.49577 24.8224 2.86298C23.2467 1.28724 21.1516 0.419434 18.9232 0.419434C16.6948 0.419434 14.5998 1.28724 13.024 2.86298C11.4483 4.4388 10.5805 6.5338 10.5805 8.76218C10.5805 10.9906 11.4483 13.0856 13.024 14.6614C13.4786 15.1159 13.973 15.5068 14.4961 15.8343C14.4962 15.8343 14.4964 15.8342 14.4966 15.8342C14.1165 15.9329 13.7393 16.0438 13.3663 16.1685C13.0462 16.2756 12.8734 16.6218 12.9805 16.9421C13.0874 17.2623 13.4338 17.435 13.7539 17.328C17.0874 16.2136 20.7591 16.2136 24.0925 17.328C24.1568 17.3495 24.2221 17.3597 24.2863 17.3597C24.542 17.3597 24.7804 17.1979 24.866 16.9421C24.973 16.6219 24.8003 16.2756 24.4801 16.1685C24.1071 16.0438 23.7299 15.9329 23.3499 15.8342C23.35 15.8342 23.3502 15.8343 23.3504 15.8343C23.8735 15.5068 24.3679 15.1159 24.8224 14.6614C25.2245 14.2593 25.5795 13.8201 25.8877 13.3535C26.0562 13.3862 26.2234 13.4205 26.3882 13.4562C26.6077 13.5039 26.8263 13.5551 27.0428 13.6088C27.036 13.6354 27.0291 13.6619 27.0234 13.6889C26.7253 15.1035 26.7446 16.3547 27.0809 17.4074C27.3831 18.3536 27.9285 19.1202 28.7018 19.6859C29.6133 20.3527 30.7136 20.6407 31.7104 20.6407C32.4606 20.6407 33.1522 20.4775 33.6601 20.1898C34.2347 19.8644 34.716 19.1787 35.0971 18.1492C35.2732 18.3547 35.4401 18.5653 35.5975 18.7809C36.2354 19.6549 36.7224 20.6181 37.045 21.6436C37.2344 22.246 37.7046 22.72 38.3027 22.9117L40.023 23.4627C40.4745 23.6074 40.7777 24.0229 40.7777 24.4968V27.3495C40.7777 27.8235 40.4745 28.2389 40.023 28.3836L37.2513 29.2714C36.8078 29.4135 36.4325 29.7183 36.1946 30.1296C35.1056 32.0116 33.3935 33.5689 31.1056 34.7585C30.8413 34.896 30.6582 35.142 30.6031 35.4336L29.7153 40.1342C29.6908 40.2637 29.5774 40.3577 29.4455 40.3577H26.5591C26.4273 40.3577 26.3138 40.2637 26.2893 40.1342L25.7976 37.5364C25.7008 37.0252 25.2214 36.6857 24.7054 36.7639C23.4621 36.9519 22.1809 37.0471 20.8977 37.0471C19.943 37.0471 19.0006 36.9939 18.0963 36.8888C17.5964 36.8313 17.1306 37.1721 17.0372 37.6658L16.5699 40.1342C16.5454 40.2637 16.4319 40.3577 16.3001 40.3577H13.4137C13.2818 40.3577 13.1684 40.2637 13.1435 40.1322L12.2888 35.6925C12.2337 35.4065 12.0541 35.1633 11.7956 35.0252C7.89551 32.9432 5.83406 29.4647 5.83406 24.9661C5.83406 22.6932 6.33134 20.6834 7.31202 18.9922C8.22716 17.414 9.56378 16.1091 11.2847 15.1137C11.5769 14.9446 11.6767 14.5707 11.5078 14.2784C11.3388 13.9863 10.9649 13.8866 10.6726 14.0554C7.33564 15.9858 5.32301 18.9638 4.76889 22.7463V22.7462C4.71007 22.7409 4.65117 22.7358 4.59252 22.7297C4.60318 22.3216 4.52936 21.9098 4.36857 21.5102C4.01395 20.6287 3.28552 19.9924 2.5127 19.8893C1.9037 19.8078 1.32415 20.0663 0.921949 20.5977C0.338789 21.3683 0.433863 21.9781 0.616219 22.354C0.924082 22.9884 1.71544 23.4371 3.02868 23.7192C2.99258 23.7732 2.95288 23.8275 2.9094 23.8821C2.13347 24.8552 1.21931 25.0704 0.625734 25.0907C0.27825 25.1024 0 25.3814 0 25.7291V25.7321C0 26.075 0.270621 26.3548 0.613266 26.3704C0.657152 26.3725 0.703008 26.3735 0.75075 26.3735C1.50183 26.3735 2.70728 26.0965 3.86539 24.6443C4.04824 24.4151 4.19721 24.1733 4.31173 23.9234C4.42706 23.9365 4.53789 23.9476 4.64403 23.9575C4.64403 23.9572 4.64403 23.9571 4.64412 23.9568C4.62328 24.2881 4.61171 24.6242 4.61171 24.9661C4.61171 27.5114 5.2185 29.7808 6.41509 31.7116C7.51841 33.4916 9.09809 34.9492 11.1118 36.0453L11.9428 40.3614C12.0764 41.0676 12.695 41.5801 13.4137 41.5801H16.3001C17.0188 41.5801 17.6374 41.0676 17.771 40.3614L18.1935 38.1295C19.0709 38.2225 19.9793 38.2696 20.8976 38.2696C22.1576 38.2696 23.4161 38.1818 24.6427 38.0085L25.088 40.3616C25.2217 41.0677 25.8403 41.5802 26.5589 41.5802H29.4454C30.164 41.5802 30.7826 41.0676 30.9163 40.3613L31.7807 35.7847C34.2226 34.4934 36.0632 32.7972 37.2525 30.7418C37.3382 30.5936 37.4702 30.485 37.6241 30.4357L40.3958 29.5478C41.3553 29.2403 42 28.3569 42 27.3493V24.4967C42 23.4892 41.3553 22.6058 40.3958 22.2984ZM34.558 15.034C34.3227 17.0459 33.6916 18.7669 33.0575 19.126C32.3368 19.5343 30.6728 19.6131 29.4235 18.6992C28.1726 17.7842 27.7563 16.1388 28.2194 13.9409C28.2194 13.9408 28.2194 13.9408 28.2194 13.9408C28.2659 13.7201 28.4228 13.5291 28.6389 13.4302C31.699 12.0294 33.4633 11.5713 34.1187 11.5713C34.2176 11.5713 34.2913 11.5817 34.3403 11.6009C34.5372 11.8107 34.7954 13.0035 34.558 15.034ZM1.71618 21.8202C1.65293 21.6898 1.80223 21.4605 1.89689 21.3354C2.04693 21.1372 2.18515 21.0966 2.28957 21.0966C2.31164 21.0966 2.33223 21.0984 2.3511 21.101C2.63214 21.1385 3.02589 21.4477 3.23449 21.9663C3.28363 22.0883 3.34745 22.2905 3.36238 22.5427C2.51623 22.3674 1.85883 22.1147 1.71618 21.8202Z" fill="#1064E5" stroke="#1064E5"/>
<path d="M19.5167 8.06173V5.87445C20.271 5.92834 20.5512 6.27312 20.8098 6.27312C21.1331 6.27312 21.2839 5.8637 21.2839 5.65895C21.2839 5.13092 20.2494 4.90468 19.5167 4.8831V4.59205C19.5167 4.46277 19.355 4.34424 19.1934 4.34424C19.0102 4.34424 18.8809 4.46277 18.8809 4.59205V4.90451C17.8572 5.0123 16.8336 5.55108 16.8336 6.90878C16.8336 8.28805 17.9111 8.67598 18.8809 9.02076V11.553C17.7818 11.4668 17.4909 10.7125 17.1353 10.7125C16.8659 10.7125 16.6396 11.0681 16.6396 11.3267C16.6396 11.8547 17.5448 12.5766 18.8809 12.5982V12.9323C18.8809 13.0615 19.0103 13.1801 19.1934 13.1801C19.3551 13.1801 19.5167 13.0615 19.5167 12.9323V12.5659C20.6805 12.4042 21.4779 11.6715 21.4779 10.3461C21.4779 8.88073 20.4542 8.40651 19.5167 8.06173ZM18.9455 7.85706C18.3744 7.64157 17.9111 7.41532 17.9111 6.80116C17.9111 6.2408 18.3421 5.97141 18.9455 5.89602V7.85706ZM19.452 11.5314V9.25783C19.98 9.48407 20.4002 9.78578 20.4002 10.4646C20.4002 11.0789 20.0339 11.4237 19.452 11.5314Z" fill="#1064E5" stroke="#1064E5"/>
</g>
<defs>
<clipPath id="clip0_39_41">
<rect width="42" height="42" fill="white"/>
</clipPath>
</defs>
</svg>
