<svg width="92" height="28" viewBox="0 0 92 28" fill="none" xmlns="http://www.w3.org/2000/svg">
<path d="M50.4119 4.59473C50.9473 4.59473 51.3867 4.75947 51.7299 5.08896C52.0731 5.40473 52.2447 5.81659 52.2447 6.32456C52.2447 6.83253 52.0731 7.25126 51.7299 7.58075C51.3867 7.91024 50.9473 8.07499 50.4119 8.07499C49.8902 8.07499 49.4509 7.91024 49.0939 7.58075C48.7507 7.25126 48.5791 6.83253 48.5791 6.32456C48.5791 5.83032 48.7507 5.41846 49.0939 5.08896C49.4509 4.75947 49.8902 4.59473 50.4119 4.59473ZM48.9292 21.1517V9.82542H51.874V21.1517H48.9292Z" fill="#061224"/>
<path d="M61.9357 9.82622H64.8805V21.0084C64.8805 22.6833 64.3725 24.0219 63.3566 25.0241C62.3407 26.04 60.9815 26.548 59.2791 26.548C57.8101 26.548 56.5333 26.1773 55.4488 25.4359C54.3779 24.6946 53.7395 23.6169 53.5336 22.2028H56.5814C56.8834 23.356 57.7552 23.9326 59.1967 23.9326C61.0227 23.9326 61.9357 22.9853 61.9357 21.0907V19.4639C61.057 20.6446 59.8695 21.2349 58.373 21.2349C56.8903 21.2349 55.6547 20.6857 54.6662 19.5874C53.6915 18.4891 53.2041 17.0957 53.2041 15.407C53.2041 13.7184 53.6983 12.3249 54.6868 11.2266C55.6753 10.1283 56.904 9.5791 58.373 9.5791C59.8832 9.5791 61.0707 10.1832 61.9357 11.3913V9.82622ZM59.032 18.4342C59.8695 18.4342 60.5628 18.1528 61.1119 17.5899C61.6611 17.027 61.9357 16.2994 61.9357 15.407C61.9357 14.5284 61.6542 13.8076 61.0913 13.2447C60.5422 12.6681 59.8557 12.3798 59.032 12.3798C58.2083 12.3798 57.5218 12.6681 56.9727 13.2447C56.4372 13.8076 56.1695 14.5284 56.1695 15.407C56.1695 16.2856 56.4372 17.0133 56.9727 17.5899C57.5218 18.1528 58.2083 18.4342 59.032 18.4342Z" fill="#061224"/>
<path d="M41.4963 15.418C40.4392 15.1984 39.588 14.9787 38.9427 14.759C38.2975 14.5394 37.7071 14.2579 37.1717 13.9147C36.6363 13.5852 36.2587 13.1734 36.0391 12.6791C35.8057 12.1849 35.689 11.5877 35.689 10.8875C35.689 10.0912 35.8606 9.38419 36.2038 8.76639C36.5333 8.16232 36.9795 7.69554 37.5424 7.36605C38.0915 7.03656 38.675 6.78944 39.2928 6.62469C39.8969 6.45995 40.5215 6.37757 41.1668 6.37757C43.13 6.37757 44.6265 6.83749 45.6561 7.75732C46.6721 8.69089 47.2693 9.85784 47.4478 11.2582L44.4823 11.2582C44.2764 10.5168 43.9263 9.97453 43.4321 9.63131C42.9241 9.28809 42.1759 9.11648 41.1874 9.11648C40.3637 9.11648 39.739 9.26063 39.3134 9.54894C38.8741 9.83724 38.6544 10.2422 38.6544 10.7639C38.6544 11.0934 38.778 11.3543 39.0251 11.5465C39.2585 11.7524 39.5468 11.9034 39.89 11.9995C40.2332 12.0956 40.8442 12.2398 41.7228 12.432C41.7915 12.4457 41.8464 12.4526 41.8876 12.4526C41.915 12.4663 41.9631 12.48 42.0317 12.4938C42.0866 12.5075 42.1416 12.5212 42.1965 12.535C42.9378 12.686 43.5625 12.8507 44.0705 13.0292C44.5784 13.2077 45.0795 13.4548 45.5738 13.7706C46.068 14.0863 46.4455 14.4913 46.7064 14.9856C46.9535 15.4798 47.0771 16.0701 47.0771 16.7566C47.0771 18.1844 46.5416 19.2964 45.4708 20.0927C44.3999 20.889 43.1232 21.2871 41.6404 21.2871C39.8282 21.2871 38.4554 20.8684 37.5218 20.0309C36.5745 19.2072 36.0116 18.1363 35.8331 16.8184L38.8192 16.8184C39.1761 17.9716 40.1097 18.5482 41.6199 18.5482C42.4573 18.5482 43.082 18.3903 43.4938 18.0746C43.9057 17.7725 44.1116 17.3744 44.1116 16.8801C44.1116 16.482 43.94 16.1937 43.5968 16.0152C43.2399 15.8368 42.5397 15.6377 41.4963 15.418Z" fill="#061224"/>
<path fill-rule="evenodd" clip-rule="evenodd" d="M77.9261 10.7315C77.1984 9.93525 76.1962 9.53711 74.9194 9.53711C73.4667 9.53711 72.3181 10.0999 71.4734 11.2255V9.81995H71.398V9.78423H68.4532V9.81995H66.2437V12.4348H68.4532V21.1105H71.398V15.1591C71.398 13.2782 72.2492 12.3378 73.9516 12.3378C74.7066 12.3378 75.2489 12.53 75.5784 12.9144C75.9079 13.2988 76.0727 13.8754 76.0727 14.6442V21.1105H79.0175V14.0059C79.0175 12.6192 78.6537 11.5278 77.9261 10.7315Z" fill="#061224"/>
<path fill-rule="evenodd" clip-rule="evenodd" d="M91.1518 9.8252H88.207V15.7767C88.207 16.6965 87.9873 17.3967 87.548 17.8772C87.1224 18.3577 86.5046 18.5979 85.6946 18.5979C84.9533 18.5979 84.4178 18.4057 84.0884 18.0213C83.7726 17.6369 83.6147 17.0603 83.6147 16.2915V9.8252H80.6699V16.9299C80.6699 18.3028 81.0268 19.3942 81.7407 20.2042C82.4683 21.0005 83.4568 21.3986 84.7062 21.3986C86.1751 21.3986 87.3421 20.7945 88.207 19.5864V21.1515H88.2072V21.4369C88.2072 22.2897 88.0098 22.9077 87.6193 23.3129C87.2296 23.7172 86.6364 23.9295 85.8173 23.9295C85.17 23.9295 84.6638 23.7999 84.2887 23.5518C83.9158 23.3051 83.6613 22.9341 83.5289 22.4283L83.5061 22.3414H80.4834L80.5028 22.4746C80.696 23.8014 81.2976 24.821 82.31 25.5219L82.3106 25.5223C83.3279 26.2177 84.5237 26.5635 85.8929 26.5635C87.4804 26.5635 88.7599 26.089 89.7184 25.1306C90.6769 24.1849 91.1518 22.9241 91.1518 21.3613V21.1515H91.1518V9.8252Z" fill="#061224"/>
<path d="M0 6.94558C0 3.10964 3.10964 0 6.94558 0H21.0544C24.8904 0 28 3.10964 28 6.94558V21.0544C28 24.8904 24.8904 28 21.0544 28H6.94558C3.10964 28 0 24.8904 0 21.0544V6.94558Z" fill="#1064E5"/>
<path fill-rule="evenodd" clip-rule="evenodd" d="M21.7467 22.035C19.7697 23.8472 17.2642 24.7533 14.2301 24.7533C11.0176 24.7533 8.38163 23.7511 6.32231 21.7467C4.27671 19.756 3.25391 17.1612 3.25391 13.9624C3.25391 10.7773 4.24925 8.19629 6.23993 6.21934C8.24434 4.24238 10.8254 3.25391 13.983 3.25391C15.603 3.25391 17.0651 3.52848 18.3694 4.07764L17.8545 6.48705C16.7562 5.97908 15.4932 5.7251 14.0654 5.7251C11.6354 5.7251 9.66528 6.45959 8.15511 7.92858C6.65866 9.39757 5.91044 11.4157 5.91044 13.983C5.91044 16.5366 6.67926 18.5547 8.21689 20.0374C9.76825 21.5339 11.7933 22.2821 14.2919 22.2821C15.3902 22.2821 16.3924 22.1242 17.2985 21.8085C18.2184 21.5064 19.0352 21.0396 19.7491 20.4081C20.4768 19.7903 21.0396 18.9597 21.4378 17.9163C21.6471 17.3859 21.8033 16.813 21.9062 16.1974C22.0315 15.0149 22.109 13.8204 21.9039 12.8934C21.7938 12.3956 21.6265 12.101 21.4517 11.9329C21.303 11.7898 21.0413 11.632 20.4861 11.6212C19.5007 11.602 18.4021 12.2268 17.282 13.3991C16.1965 14.5352 15.2824 15.9796 14.7218 17.0671C14.5035 17.4905 14.3526 17.8391 14.3526 17.8391L14.295 17.7809L14.2946 17.7815L9.8291 13.2885L11.7192 11.3984L13.8096 13.4431C14.2638 12.7987 14.7799 12.1485 15.3494 11.5525C16.6347 10.2073 18.4146 8.9073 20.5382 8.94872C21.6513 8.97043 22.5943 9.32286 23.305 10.0067C23.9896 10.6654 24.3365 11.5145 24.5138 12.316C24.6536 12.9477 24.7028 13.6262 24.7026 14.2919H24.7121V14.642C24.7121 15.4423 24.6469 16.1996 24.5165 16.9139L24.5131 16.9442L24.511 16.9439C24.1303 18.9977 23.2088 20.6947 21.7467 22.035Z" fill="white"/>
</svg>
