<svg width="42" height="36" viewBox="0 0 42 36" fill="none" xmlns="http://www.w3.org/2000/svg">
<path d="M18.3753 21.6184C18.3753 23.0657 19.5528 24.2431 21 24.2431C22.4473 24.2431 23.6247 23.0657 23.6247 21.6184C23.6247 21.2562 23.331 20.9625 22.9688 20.9625C22.6066 20.9625 22.3129 21.2562 22.3129 21.6184C22.3129 22.3424 21.724 22.9313 21 22.9313C20.2761 22.9313 19.6871 22.3424 19.6871 21.6184C19.6871 21.4831 19.7078 21.3524 19.746 21.2295C19.7686 21.1951 19.7893 21.159 19.8056 21.1195C19.8214 21.0813 19.8328 21.0424 19.841 21.0033C20.062 20.5887 20.4984 20.3056 21.0001 20.3056C21.3623 20.3056 21.656 20.012 21.656 19.6497C21.656 19.2875 21.3623 18.9938 21.0001 18.9938C20.1454 18.9938 19.385 19.4047 18.9055 20.039L8.90947 15.9179C8.57447 15.7797 8.19109 15.9394 8.0531 16.2743C7.91503 16.6092 8.07458 16.9926 8.40951 17.1307L18.4018 21.2503C18.3847 21.3706 18.3753 21.4934 18.3753 21.6184Z" fill="#1064E5" stroke="#1064E5" stroke-width="0.5"/>
<path d="M35.8492 6.7694C31.8829 2.80306 26.6093 0.618652 21 0.618652C15.3907 0.618652 10.1172 2.80306 6.15075 6.7694C2.18433 10.7357 0 16.0093 0 21.6186C0 25.7262 1.19039 29.7085 3.44236 33.1352C3.56837 33.3269 3.77761 33.431 3.9911 33.431C4.11474 33.431 4.23969 33.396 4.3507 33.3232C4.6534 33.1242 4.73752 32.7175 4.53862 32.4148C3.97839 31.5625 3.48909 30.6731 3.07128 29.7549L4.88067 29.0053C5.21535 28.8667 5.37433 28.483 5.23568 28.1483C5.09704 27.8136 4.71325 27.6548 4.37866 27.7933L2.56803 28.5433C1.81637 26.546 1.39429 24.4325 1.32304 22.2744H3.28092C3.64314 22.2744 3.93683 21.9807 3.93683 21.6185C3.93683 21.2563 3.64314 20.9626 3.28092 20.9626H1.32378C1.39445 18.7893 1.81587 16.6771 2.56106 14.6909L4.37866 15.4438C4.46073 15.4778 4.54575 15.4938 4.62946 15.4938C4.88682 15.4938 5.13107 15.3413 5.23568 15.0888C5.37433 14.7542 5.21535 14.3704 4.88067 14.2318L3.06308 13.4789C3.9406 11.5474 5.13615 9.75591 6.623 8.16911L8.00697 9.55307C8.13503 9.68113 8.30286 9.74516 8.47077 9.74516C8.63868 9.74516 8.80651 9.68113 8.93458 9.55307C9.19079 9.29694 9.19079 8.88167 8.93458 8.62554L7.55062 7.24157C9.13742 5.7548 10.9289 4.55925 12.8604 3.68165L13.6133 5.49924C13.7179 5.75185 13.9622 5.90427 14.2195 5.90427C14.3032 5.90427 14.3883 5.8882 14.4703 5.85417C14.805 5.71553 14.964 5.33182 14.8253 4.99715L14.0725 3.17955C16.0587 2.43436 18.1709 2.01294 20.3442 1.94227V3.89941C20.3442 4.26163 20.6379 4.55531 21.0001 4.55531C21.3623 4.55531 21.656 4.26163 21.656 3.89941V1.94243C23.8294 2.01311 25.9416 2.43453 27.9278 3.17972L27.1749 4.99731C27.0363 5.33199 27.1952 5.71569 27.5299 5.85433C27.612 5.88836 27.697 5.90443 27.7807 5.90443C28.0381 5.90443 28.2823 5.75193 28.3869 5.49941L29.1398 3.68181C31.0713 4.55933 32.8628 5.75488 34.4495 7.24174L33.0656 8.6257C32.8094 8.88183 32.8094 9.2971 33.0656 9.55323C33.1937 9.6813 33.3615 9.74533 33.5294 9.74533C33.6973 9.74533 33.8651 9.6813 33.9932 9.55323L35.3772 8.16927C36.8639 9.75607 38.0595 11.5476 38.9371 13.4791L37.1195 14.232C36.7848 14.3706 36.6258 14.7543 36.7645 15.089C36.8691 15.3416 37.1133 15.494 37.3707 15.494C37.4544 15.494 37.5394 15.4779 37.6215 15.4439L39.4391 14.691C40.1843 16.6773 40.6057 18.7894 40.6764 20.9628H38.7192C38.357 20.9628 38.0633 21.2565 38.0633 21.6187C38.0633 21.9809 38.357 22.2746 38.7192 22.2746H40.677C40.6059 24.4327 40.1837 26.5462 39.432 28.5435L37.6214 27.7935C37.2868 27.6551 36.9031 27.8138 36.7644 28.1485C36.6258 28.4831 36.7847 28.8669 37.1194 29.0055L38.9288 29.755C38.511 30.6733 38.0217 31.5626 37.4615 32.415C37.2625 32.7177 37.3467 33.1243 37.6494 33.3233C37.952 33.5221 38.3587 33.4381 38.5577 33.1354C40.8098 29.7088 42.0001 25.7264 42.0001 21.6188C42 16.0093 39.8156 10.7357 35.8492 6.7694Z" fill="#1064E5" stroke="#1064E5" stroke-width="0.5"/>
<path d="M26.8922 28.8228H15.0859C14.0009 28.8228 13.1182 29.7055 13.1182 30.7905V33.4141C13.1182 34.4991 14.0009 35.3818 15.0859 35.3818H26.8922C27.9771 35.3818 28.8599 34.4991 28.8599 33.4141V30.7905C28.8599 29.7054 27.9771 28.8228 26.8922 28.8228ZM27.5481 33.4141C27.5481 33.7758 27.2538 34.07 26.8922 34.07H15.0859C14.7242 34.07 14.43 33.7758 14.43 33.4141V30.7905C14.43 30.4288 14.7242 30.1346 15.0859 30.1346H26.8922C27.2538 30.1346 27.5481 30.4288 27.5481 30.7905V33.4141Z" fill="#1064E5" stroke="#1064E5" stroke-width="0.5"/>
<path d="M21.645 31.4463H20.3332C19.9709 31.4463 19.6772 31.74 19.6772 32.1022C19.6772 32.4644 19.9709 32.7581 20.3332 32.7581H21.645C22.0072 32.7581 22.3009 32.4644 22.3009 32.1022C22.3009 31.74 22.0072 31.4463 21.645 31.4463Z" fill="#1064E5" stroke="#1064E5" stroke-width="0.5"/>
<path d="M18.3652 31.4463H17.0534C16.6911 31.4463 16.3975 31.74 16.3975 32.1022C16.3975 32.4644 16.6911 32.7581 17.0534 32.7581H18.3652C18.7274 32.7581 19.0211 32.4644 19.0211 32.1022C19.0211 31.74 18.7274 31.4463 18.3652 31.4463Z" fill="#1064E5" stroke="#1064E5" stroke-width="0.5"/>
<path d="M24.9243 31.4463H23.6125C23.2502 31.4463 22.9565 31.74 22.9565 32.1022C22.9565 32.4644 23.2502 32.7581 23.6125 32.7581H24.9243C25.2865 32.7581 25.5802 32.4644 25.5802 32.1022C25.5802 31.74 25.2865 31.4463 24.9243 31.4463Z" fill="#1064E5" stroke="#1064E5" stroke-width="0.5"/>
</svg>
