<svg width="42" height="42" viewBox="0 0 42 42" fill="none" xmlns="http://www.w3.org/2000/svg">
<path d="M41.256 17.9927C40.8205 17.3352 40.1604 16.8821 39.393 16.7103C39.888 15.7634 39.8679 14.582 39.2372 13.63C38.7886 12.9523 38.1119 12.5146 37.3752 12.3489C37.5066 12.0983 37.6037 11.8279 37.6617 11.5427C37.8225 10.7496 37.6655 9.94146 37.2185 9.26694C36.783 8.60909 36.1229 8.156 35.3555 7.98456C35.8506 7.03768 35.8304 5.85624 35.1998 4.9039C34.2779 3.51162 32.3944 3.1287 31.0017 4.05091L27.9865 6.04786C26.3792 5.23267 24.6696 4.65429 22.8954 4.32488C22.3346 3.47348 21.6825 2.68201 20.9526 1.97449L19.7051 0.765489C18.7916 -0.120193 17.3589 -0.253174 16.2983 0.44954C15.0435 1.28043 14.6987 2.97745 15.5296 4.23227C15.5622 4.28194 15.5943 4.33193 15.626 4.38192C11.5369 5.20928 7.81028 7.37926 5.05197 10.5589C2.05879 14.0097 0.410156 18.4291 0.410156 23.003C0.410156 23.8797 0.470078 24.758 0.588638 25.613C1.5022 32.2591 5.92933 37.9866 12.1419 40.5606C14.4458 41.5155 16.8904 42 19.4068 42C23.3921 42 27.2068 40.7795 30.4391 38.4707C33.6011 36.2117 35.9669 33.0942 37.281 29.4553C37.4037 29.1163 37.2278 28.7417 36.8888 28.6193C36.5494 28.4969 36.1752 28.6725 36.0528 29.0118C34.829 32.4004 32.6254 35.3036 29.6796 37.4078C26.6704 39.5576 23.1181 40.6939 19.4068 40.6939C17.4881 40.6939 15.6145 40.3911 13.8213 39.7938L19.1348 36.2751C19.1351 36.2748 19.1354 36.2748 19.1357 36.2745C19.136 36.2745 19.136 36.2742 19.1364 36.2738L23.5523 33.3495H23.5526C23.949 33.0868 24.2197 32.6856 24.3146 32.2194C24.4094 31.7531 24.3172 31.2776 24.0544 30.8812L23.9961 30.7928L24.8539 30.2247C25.4659 29.8193 26.202 29.6604 26.9268 29.7767C27.9762 29.9452 29.042 29.7145 29.9276 29.1278L37.0426 24.4161C36.9939 25.0333 36.9138 25.6469 36.8019 26.2503C36.7359 26.605 36.9702 26.946 37.3249 27.0117C37.3649 27.0194 37.4053 27.0229 37.4447 27.0229C37.7533 27.0229 38.0276 26.8031 38.0859 26.4887C38.267 25.5149 38.3711 24.5174 38.398 23.5186L40.403 22.1907C41.0775 21.744 41.538 21.0612 41.6988 20.2684C41.86 19.4754 41.7027 18.6672 41.256 17.9927ZM26.7185 6.8874L24.7231 8.20887L24.3303 7.15047C24.1662 6.70891 23.9781 6.27601 23.7699 5.85239C24.7821 6.10906 25.7678 6.45513 26.7185 6.8874ZM6.03859 11.4148C8.68955 8.35883 12.3005 6.30452 16.2509 5.5922C16.8847 7.12772 17.0366 8.84333 16.6578 10.4785L15.0656 17.3573C14.8153 17.09 14.4904 16.9058 14.1244 16.8314C13.6579 16.7363 13.1827 16.8289 12.7863 17.0916L8.27619 20.0781C8.27587 20.0781 8.27587 20.0781 8.27555 20.0784C8.27555 20.0784 8.27523 20.0784 8.27523 20.0787L1.7704 24.3863C1.73483 23.9275 1.71625 23.4651 1.71625 23.003C1.71625 18.7438 3.25145 14.6281 6.03859 11.4148ZM23.0348 31.9589C23.0095 32.0832 22.937 32.1905 22.831 32.2607H22.8313L18.9528 34.829L11.7542 24.0935C11.5533 23.7939 11.1476 23.7141 10.848 23.915C10.5487 24.1159 10.4686 24.5212 10.6695 24.8209L17.8636 35.5503L12.3268 39.217C6.82494 36.8106 2.88776 31.7285 1.94119 25.8148L8.45371 21.5162L9.20321 22.6345C9.32946 22.8223 9.53582 22.9239 9.74634 22.9239C9.87131 22.9239 9.99789 22.8883 10.1094 22.8133C10.409 22.6124 10.4891 22.2067 10.2882 21.9071L9.54383 20.7968L13.5076 18.1805C13.613 18.1103 13.7396 18.086 13.8639 18.1113C13.9883 18.1366 14.0956 18.209 14.1658 18.3147L22.9656 31.6025C23.0354 31.708 23.0601 31.8345 23.0348 31.9589ZM40.419 20.0082C40.3274 20.4594 40.0656 20.8478 39.6817 21.1019L37.3896 22.6198C37.389 22.6201 37.3883 22.6207 37.3874 22.6211L29.2064 28.039C28.5943 28.4443 27.8583 28.6036 27.1335 28.4869C26.0844 28.3187 25.0186 28.5491 24.1326 29.1358L23.2748 29.704L16.0676 18.821L17.9306 10.7733C18.4103 8.7001 18.1574 6.51633 17.2436 4.61391C17.2352 4.59404 17.2263 4.57482 17.216 4.55591C17.0404 4.19638 16.8411 3.84743 16.6184 3.51097C16.1852 2.85665 16.3649 1.97193 17.0196 1.53838C17.5726 1.17212 18.3199 1.24133 18.7961 1.70308L20.0435 2.9124C21.3929 4.22074 22.4519 5.84342 23.1056 7.60517L23.7849 9.43517C23.7862 9.4387 23.7875 9.44158 23.7888 9.44479C23.7904 9.44895 23.7923 9.45344 23.7939 9.4576C23.7987 9.46882 23.8032 9.47907 23.808 9.48772C23.8211 9.51528 23.8355 9.54252 23.8528 9.56847C24.0522 9.86936 24.4572 9.95171 24.7578 9.7524L31.723 5.14006C32.5152 4.61551 33.5864 4.83309 34.1109 5.6252C34.6355 6.41732 34.4179 7.48853 33.6258 8.01308L33.0211 8.41363C33.0211 8.41363 33.0208 8.41363 33.0205 8.41395L31.6718 9.30732C31.6699 9.3086 31.6686 9.30988 31.6666 9.31084C31.659 9.31629 31.6516 9.32142 31.6455 9.32655C31.3667 9.5313 31.2946 9.92063 31.4878 10.2122C31.6868 10.5131 32.0922 10.5955 32.3931 10.3962L33.7427 9.50214C34.1263 9.24868 34.5855 9.15928 35.0363 9.25092C35.4872 9.34257 35.8759 9.60436 36.1297 9.98824C36.3838 10.3718 36.4735 10.8316 36.3818 11.2825C36.2902 11.7337 36.0284 12.122 35.6445 12.3761L33.6905 13.6704C33.3896 13.8693 33.3073 14.2744 33.5066 14.5753C33.6322 14.765 33.8398 14.8678 34.0516 14.8678C34.1753 14.8678 34.3006 14.8326 34.4115 14.7592L34.714 14.5589L35.7605 13.8658C36.553 13.3413 37.6239 13.5588 38.1484 14.351C38.673 15.1434 38.4554 16.2143 37.6633 16.7392L36.6872 17.3855C36.6821 17.3887 36.677 17.3922 36.6718 17.3957L35.7093 18.0331C35.4084 18.2321 35.326 18.6374 35.5253 18.9383C35.6509 19.128 35.8586 19.2309 36.0704 19.2309C36.1941 19.2309 36.3194 19.1956 36.4302 19.1222L36.7327 18.922C36.7327 18.922 36.7327 18.9216 36.733 18.9216L37.7796 18.2289C38.1631 17.9748 38.6226 17.885 39.0738 17.977C39.525 18.0683 39.9134 18.3304 40.1675 18.714C40.4212 19.0976 40.5107 19.5574 40.419 20.0082Z" fill="#1064E5" stroke="#1064E5"/>
</svg>
